<svg xmlns="http://www.w3.org/2000/svg" xml:space="preserve" viewBox="0 0 52 52" id="cv">
  <g fill="none" stroke="#000" stroke-linecap="round" stroke-linejoin="round" stroke-miterlimit="10" stroke-width="2">
    <path d="M30.073 21.444h7.886M14.041 28.783H37.96M14.041 36.123H37.96M14.041 43.462H37.96M24.073 23.244H12.547V20.88c0-2.7 2.188-4.888 4.888-4.888h1.75c2.7 0 4.888 2.188 4.888 4.888v2.364z"></path>
    <circle cx="18.31" cy="10.001" r="3"></circle>
    <path d="M26.323 14.575H37.96M33.65 2H9.201a2.15 2.15 0 0 0-2.15 2.15v43.7A2.15 2.15 0 0 0 9.202 50h33.596a2.15 2.15 0 0 0 2.15-2.15V13.3a2.15 2.15 0 0 0-.63-1.52l-9.149-9.15A2.15 2.15 0 0 0 33.65 2z"></path>
  </g>
</svg>
